<svg xmlns="http://www.w3.org/2000/svg" xmlns:xlink="http://www.w3.org/1999/xlink" width="127" height="40" viewBox="0 0 127 40">
    <defs>
        <path id="a" d="M0 0h126v40H0z"/>
        <path id="c" d="M0 .04h40.29v40.03H0z"/>
    </defs>
    <g fill="none" fill-rule="evenodd" transform="translate(.8)">
        <mask id="b" fill="#fff">
            <use xlink:href="#a"/>
        </mask>
        <path fill="#EF5327" d="M37.352 16.068c0-2.738-2.18-4.995-4.955-4.995-2.774 0-4.954 2.257-4.954 4.995 0 2.723 2.212 4.996 4.954 4.996 2.742 0 4.955-2.273 4.955-4.996zM5.878 26.062H4.9v9.575h.978c1.475 0 2.71-.208 3.816-1.25.994-.928 1.508-2.193 1.508-3.538 0-1.377-.53-2.707-1.573-3.62-1.105-.976-2.324-1.167-3.75-1.167z" mask="url(#b)"/>
        <g mask="url(#b)">
            <g transform="translate(0 -.04)">
                <mask id="d" fill="#fff">
                    <use xlink:href="#c"/>
                </mask>
                <path fill="#EF5327" d="M38.281 36.926l-1.555-8.166h-.031l-3.897 8.662-3.88-8.662h-.032l-1.555 8.166h-1.38l2.454-12.763L32.798 34.3l4.41-10.137 2.453 12.763h-1.38zM21.863 22.145l-1.555-8.166h-.03L16.38 22.64 12.5 13.98h-.032l-1.555 8.166h-1.38l2.454-12.763L16.38 19.52l4.41-10.138 2.453 12.763h-1.38zm.754 3.956h-4.922v3.587h4.778v1.25h-4.778v4.739h4.922v1.249h-6.27V24.852h6.27v1.25zm-12.04 9.303c-1.445 1.28-2.888 1.522-4.779 1.522H3.553V24.852H5.83c1.812 0 3.287.24 4.713 1.458 1.38 1.185 2.006 2.8 2.006 4.595 0 1.76-.642 3.314-1.973 4.5zm21.82-25.541c3.447 0 6.301 2.802 6.301 6.26 0 3.476-2.854 6.23-6.3 6.23-3.448 0-6.302-2.754-6.302-6.23 0-3.458 2.854-6.26 6.301-6.26zM0 40.07h40.29V.04H0v40.03z" mask="url(#d)"/>
            </g>
        </g>
        <path fill="#EF5327" d="M104.21 24.812h6.27v1.25h-4.922v3.587h4.777v1.249h-4.777v4.739h4.921v1.25h-6.27V24.811zm-6.252 12.074H96.61V26.062h-2.918v-1.25h7.216v1.25h-2.95v10.824zm-10.631-9.512l-2.068 4.836h4.088l-2.02-4.836zm-2.614 6.085l-1.458 3.427H81.78l5.58-12.65 5.435 12.65h-1.491l-1.427-3.427h-5.164zM73.635 30.4h.417c1.523 0 3.063-.287 3.063-2.16 0-1.986-1.46-2.177-3.079-2.177h-.401V30.4zm0 6.487h-1.347V24.812h1.748c2.293 0 4.426.61 4.426 3.33 0 1.859-1.171 3.17-3.03 3.332l3.846 5.412h-1.65l-3.656-5.3h-.337v5.3zm-5.547-9.43c-.962-.995-2.293-1.602-3.688-1.602-2.693 0-4.874 2.337-4.874 4.995 0 2.659 2.197 4.996 4.905 4.996 1.364 0 2.695-.64 3.657-1.601v1.665c-1.043.752-2.326 1.186-3.608 1.186-3.415 0-6.3-2.772-6.3-6.197 0-3.46 2.837-6.294 6.3-6.294 1.346 0 2.533.384 3.608 1.185v1.666zm-19.272 8.39c2.741 0 4.954-2.274 4.954-4.997 0-2.738-2.18-4.995-4.954-4.995-2.775 0-4.955 2.257-4.955 4.995 0 2.723 2.213 4.996 4.955 4.996zm0 1.249c-3.448 0-6.302-2.754-6.302-6.23 0-3.458 2.854-6.26 6.302-6.26 3.447 0 6.3 2.802 6.3 6.26 0 3.476-2.853 6.23-6.3 6.23zm74.235-14.99h-1.349V11.281h-2.918v-1.25H126v1.25h-2.95v10.824zM104.626 9.52l9.428 9.863V10.03h1.348v12.62l-9.428-9.85v9.304h-1.348V9.52zm-10.565.511h6.27v1.25h-4.924v3.587h4.78v1.249h-4.78v4.739h4.923v1.25h-6.269V10.03zm-14.718-.688l4.392 10.137 4.41-10.137L90.6 22.105h-1.38l-1.555-8.166-3.929 8.663-3.878-8.663-1.589 8.166H76.89l2.453-12.762zm-12.058.688h6.27v1.25h-4.922v3.587h4.778v1.249h-4.778v4.739h4.922v1.25h-6.27V10.03zM59.14 19.24l3.449-9.208h1.458L59.14 22.826 54.235 10.03h1.458l3.447 9.208zM43.765 17.22c0 .897-.032 1.922.529 2.691.53.736 1.556 1.152 2.437 1.152.865 0 1.812-.4 2.373-1.072.642-.769.593-1.826.593-2.771v-7.19h1.347v7.56c0 1.311-.096 2.352-1.058 3.345-.834.897-2.036 1.378-3.255 1.378-1.138 0-2.31-.432-3.126-1.234-1.058-1.008-1.187-2.114-1.187-3.49v-7.559h1.347v7.19z" mask="url(#b)"/>
    </g>
</svg>
