<svg xmlns="http://www.w3.org/2000/svg" width="150" height="150" viewBox="0 0 150 150"><title>French party Écologistes</title><path d="M12.253,69.508v2.766h-7.9v3.206H11.6v2.558H4.352v3.667h8.069v2.766H1.063V69.508H12.253ZM4.834,68.168l2.013-2.976h3.29L6.909,68.168H4.834Z" fill="#00c000"/><path d="M24.241,73.5a3.321,3.321,0,0,0-.734-0.827,3.432,3.432,0,0,0-2.158-.756,3.857,3.857,0,0,0-1.886.43A3.567,3.567,0,0,0,18.206,73.5a5.049,5.049,0,0,0-.7,1.646,8.182,8.182,0,0,0-.22,1.907,7.61,7.61,0,0,0,.22,1.833,4.931,4.931,0,0,0,.7,1.6,3.587,3.587,0,0,0,1.257,1.143,3.838,3.838,0,0,0,1.886.43,3.042,3.042,0,0,0,2.358-.923,4.259,4.259,0,0,0,1.037-2.43H27.93a7.62,7.62,0,0,1-.65,2.536A6.073,6.073,0,0,1,25.9,83.173a5.868,5.868,0,0,1-2.012,1.216,7.367,7.367,0,0,1-2.536.42,7.656,7.656,0,0,1-3.091-.6,6.61,6.61,0,0,1-2.316-1.644A7.289,7.289,0,0,1,14.5,80.1a9.022,9.022,0,0,1-.5-3.049,9.337,9.337,0,0,1,.5-3.113,7.478,7.478,0,0,1,1.445-2.5,6.624,6.624,0,0,1,2.316-1.677,8.014,8.014,0,0,1,5.428-.252,6.365,6.365,0,0,1,1.97,1.039,5.6,5.6,0,0,1,1.436,1.687,6.027,6.027,0,0,1,.712,2.3H24.618A2.7,2.7,0,0,0,24.241,73.5Z" fill="#00c000"/><path d="M30.026,73.941a7.478,7.478,0,0,1,1.445-2.5,6.624,6.624,0,0,1,2.316-1.677,8.178,8.178,0,0,1,6.193,0,6.648,6.648,0,0,1,2.306,1.677,7.478,7.478,0,0,1,1.445,2.5,9.337,9.337,0,0,1,.5,3.113,9.022,9.022,0,0,1-.5,3.049,7.289,7.289,0,0,1-1.445,2.463A6.633,6.633,0,0,1,39.98,84.21a8.307,8.307,0,0,1-6.193,0,6.61,6.61,0,0,1-2.316-1.644A7.289,7.289,0,0,1,30.026,80.1a9.022,9.022,0,0,1-.5-3.049A9.337,9.337,0,0,1,30.026,73.941Zm3.007,4.946a4.931,4.931,0,0,0,.7,1.6,3.587,3.587,0,0,0,1.257,1.143,4.354,4.354,0,0,0,3.773,0,3.594,3.594,0,0,0,1.257-1.143,4.931,4.931,0,0,0,.7-1.6,7.61,7.61,0,0,0,.22-1.833,8.182,8.182,0,0,0-.22-1.907,5.049,5.049,0,0,0-.7-1.646,3.574,3.574,0,0,0-1.257-1.153,4.354,4.354,0,0,0-3.773,0A3.567,3.567,0,0,0,33.735,73.5a5.049,5.049,0,0,0-.7,1.646,8.182,8.182,0,0,0-.22,1.907A7.61,7.61,0,0,0,33.033,78.887Z" fill="#00c000"/><path d="M49.767,69.508v12.2h7.294v2.766H46.477V69.508h3.29Z" fill="#00c000"/><path d="M58.758,73.941a7.478,7.478,0,0,1,1.445-2.5,6.624,6.624,0,0,1,2.316-1.677,8.178,8.178,0,0,1,6.193,0,6.648,6.648,0,0,1,2.306,1.677,7.464,7.464,0,0,1,1.445,2.5,9.337,9.337,0,0,1,.5,3.113,9.022,9.022,0,0,1-.5,3.049,7.275,7.275,0,0,1-1.445,2.463,6.633,6.633,0,0,1-2.306,1.644,8.307,8.307,0,0,1-6.193,0A6.61,6.61,0,0,1,60.2,82.566,7.289,7.289,0,0,1,58.758,80.1a9.022,9.022,0,0,1-.5-3.049A9.337,9.337,0,0,1,58.758,73.941Zm3.007,4.946a4.931,4.931,0,0,0,.7,1.6,3.587,3.587,0,0,0,1.257,1.143,4.354,4.354,0,0,0,3.773,0,3.594,3.594,0,0,0,1.257-1.143,4.931,4.931,0,0,0,.7-1.6,7.61,7.61,0,0,0,.22-1.833,8.182,8.182,0,0,0-.22-1.907,5.049,5.049,0,0,0-.7-1.646A3.574,3.574,0,0,0,67.5,72.348a4.354,4.354,0,0,0-3.773,0A3.567,3.567,0,0,0,62.467,73.5a5.049,5.049,0,0,0-.7,1.646,8.182,8.182,0,0,0-.22,1.907A7.61,7.61,0,0,0,61.765,78.887Z" fill="#00c000"/><path d="M84.075,84.357a5.523,5.523,0,0,1-2.159.452,7.649,7.649,0,0,1-3.09-.6,6.587,6.587,0,0,1-2.316-1.644A7.263,7.263,0,0,1,75.063,80.1a9.022,9.022,0,0,1-.5-3.049,9.337,9.337,0,0,1,.5-3.113,7.451,7.451,0,0,1,1.446-2.5,6.6,6.6,0,0,1,2.316-1.677,7.538,7.538,0,0,1,3.09-.609,7.289,7.289,0,0,1,2.233.346A6.315,6.315,0,0,1,86.1,70.514a5.5,5.5,0,0,1,2.128,3.919H85.081a3.153,3.153,0,0,0-1.132-1.886,3.29,3.29,0,0,0-2.033-.629,3.86,3.86,0,0,0-1.886.43A3.567,3.567,0,0,0,78.772,73.5a5.031,5.031,0,0,0-.7,1.646,8.182,8.182,0,0,0-.22,1.907,7.61,7.61,0,0,0,.22,1.833,4.913,4.913,0,0,0,.7,1.6,3.587,3.587,0,0,0,1.257,1.143,3.841,3.841,0,0,0,1.886.43,3.209,3.209,0,0,0,3.563-3.227H82.166V76.383h6.288v8.089h-2.1l-0.336-1.7A4.936,4.936,0,0,1,84.075,84.357Z" fill="#00c000"/><path d="M94.407,69.508V84.472h-3.29V69.508h3.29Z" fill="#00c000"/><path d="M99.813,80.783a2.391,2.391,0,0,0,.723.849,3.144,3.144,0,0,0,1.059.483,5.026,5.026,0,0,0,1.257.157A6.466,6.466,0,0,0,103.8,82.2a3.289,3.289,0,0,0,.943-0.283,2.071,2.071,0,0,0,.733-0.576,1.443,1.443,0,0,0,.293-0.933,1.314,1.314,0,0,0-.387-0.984,3.056,3.056,0,0,0-1.016-.629,10.255,10.255,0,0,0-1.426-.44q-0.8-.189-1.613-0.42a14.2,14.2,0,0,1-1.634-.513,5.589,5.589,0,0,1-1.426-.786,3.706,3.706,0,0,1-1.016-1.2,3.653,3.653,0,0,1-.387-1.75,3.912,3.912,0,0,1,.493-2,4.445,4.445,0,0,1,1.288-1.414,5.661,5.661,0,0,1,1.8-.839,7.708,7.708,0,0,1,2.013-.273,9.565,9.565,0,0,1,2.253.263,5.619,5.619,0,0,1,1.917.849,4.275,4.275,0,0,1,1.33,1.5,4.593,4.593,0,0,1,.493,2.212h-3.186a2.623,2.623,0,0,0-.283-1.112,1.848,1.848,0,0,0-.638-0.691,2.72,2.72,0,0,0-.912-0.356,5.613,5.613,0,0,0-1.121-.1,3.818,3.818,0,0,0-.8.084,2.131,2.131,0,0,0-.723.293,1.823,1.823,0,0,0-.536.524,1.408,1.408,0,0,0-.208.8,1.341,1.341,0,0,0,.167.713,1.49,1.49,0,0,0,.66.5,8.418,8.418,0,0,0,1.363.46q0.87,0.23,2.273.587,0.42,0.084,1.163.3a5.6,5.6,0,0,1,1.477.7,4.443,4.443,0,0,1,1.269,1.289,3.662,3.662,0,0,1,.534,2.064,4.59,4.59,0,0,1-.4,1.907,4.16,4.16,0,0,1-1.185,1.52,5.677,5.677,0,0,1-1.949,1,9.223,9.223,0,0,1-2.693.356,9.445,9.445,0,0,1-2.4-.305,6.014,6.014,0,0,1-2.053-.953A4.682,4.682,0,0,1,96.859,81.9a4.949,4.949,0,0,1-.5-2.389h3.186A2.747,2.747,0,0,0,99.813,80.783Z" fill="#00c000"/><path d="M109.726,72.275V69.508h12.259v2.766H117.5v12.2H114.21v-12.2h-4.484Z" fill="#00c000"/><path d="M134.9,69.508v2.766h-7.9v3.206h7.252v2.558h-7.252v3.667h8.069v2.766H123.7V69.508H134.9Z" fill="#00c000"/><path d="M139.8,80.783a2.391,2.391,0,0,0,.723.849,3.144,3.144,0,0,0,1.059.483,5.026,5.026,0,0,0,1.257.157,6.466,6.466,0,0,0,.943-0.073,3.289,3.289,0,0,0,.943-0.283,2.071,2.071,0,0,0,.733-0.576,1.443,1.443,0,0,0,.293-0.933,1.314,1.314,0,0,0-.387-0.984,3.056,3.056,0,0,0-1.016-.629,10.255,10.255,0,0,0-1.426-.44q-0.8-.189-1.613-0.42a14.2,14.2,0,0,1-1.634-.513,5.589,5.589,0,0,1-1.426-.786,3.706,3.706,0,0,1-1.016-1.2,3.653,3.653,0,0,1-.387-1.75,3.912,3.912,0,0,1,.493-2,4.445,4.445,0,0,1,1.288-1.414,5.661,5.661,0,0,1,1.8-.839,7.708,7.708,0,0,1,2.013-.273,9.565,9.565,0,0,1,2.253.263,5.619,5.619,0,0,1,1.917.849,4.275,4.275,0,0,1,1.33,1.5,4.593,4.593,0,0,1,.493,2.212h-3.186a2.623,2.623,0,0,0-.283-1.112,1.848,1.848,0,0,0-.638-0.691,2.72,2.72,0,0,0-.912-0.356,5.613,5.613,0,0,0-1.121-.1,3.818,3.818,0,0,0-.8.084,2.131,2.131,0,0,0-.723.293,1.823,1.823,0,0,0-.536.524,1.408,1.408,0,0,0-.208.8,1.341,1.341,0,0,0,.167.713,1.49,1.49,0,0,0,.66.5,8.418,8.418,0,0,0,1.363.46q0.87,0.23,2.273.587,0.42,0.084,1.163.3a5.6,5.6,0,0,1,1.477.7,4.443,4.443,0,0,1,1.269,1.289,3.662,3.662,0,0,1,.534,2.064,4.59,4.59,0,0,1-.4,1.907,4.16,4.16,0,0,1-1.185,1.52,5.677,5.677,0,0,1-1.949,1,9.223,9.223,0,0,1-2.693.356,9.445,9.445,0,0,1-2.4-.305,6.014,6.014,0,0,1-2.053-.953,4.682,4.682,0,0,1-1.414-1.654,4.949,4.949,0,0,1-.5-2.389h3.186A2.747,2.747,0,0,0,139.8,80.783Z" fill="#00c000"/></svg>
