<?xml version="1.0" encoding="utf-8"?>
<!-- Generator: Adobe Illustrator 16.0.0, SVG Export Plug-In . SVG Version: 6.00 Build 0)  -->
<!DOCTYPE svg PUBLIC "-//W3C//DTD SVG 1.1//EN" "http://www.w3.org/Graphics/SVG/1.1/DTD/svg11.dtd">
<svg version="1.1" id="Calque_1" xmlns="http://www.w3.org/2000/svg" xmlns:xlink="http://www.w3.org/1999/xlink" x="0px" y="0px"
	 width="187.94px" height="52.5px" viewBox="0 0 187.94 52.5" enable-background="new 0 0 187.94 52.5" xml:space="preserve">
<g>
	<path fill="#E91B3C" d="M59.49,11.04h2.55v9.21h4.72v2.35h-7.27V11.04z"/>
	<path fill="#E91B3C" d="M68.26,11.04h7.85v2.35H70.8v2.16h5.01v2.35H70.8v2.35h5.6v2.35h-8.15V11.04z"/>
	<path fill="#E91B3C" d="M84.15,13.87c-0.41-0.52-1.22-0.77-1.85-0.77c-0.72,0-1.71,0.33-1.71,1.19c0,2.11,5.32,0.75,5.32,4.8
		c0,2.58-2.07,3.8-4.46,3.8c-1.49,0-2.79-0.44-3.89-1.45l1.81-1.99c0.52,0.69,1.37,1.09,2.22,1.09c0.83,0,1.76-0.39,1.76-1.21
		c0-2.12-5.42-0.98-5.42-4.83c0-2.47,2.14-3.76,4.41-3.76c1.31,0,2.56,0.34,3.54,1.21L84.15,13.87z"/>
	<path fill="#E91B3C" d="M92.64,11.04h3.82c3.72,0,6.84,1.58,6.84,5.81c0,3.74-3.05,5.75-6.5,5.75h-4.16V11.04z M95.18,20.25h1.32
		c2.37,0,4.15-0.9,4.15-3.53c0-2.27-1.81-3.33-3.97-3.33h-1.5V20.25z"/>
	<path fill="#E91B3C" d="M105.12,11.04h7.85v2.35h-5.31v2.16h5.01v2.35h-5.01v2.35h5.6v2.35h-8.15V11.04z M109.01,7.86h3.33
		l-2.82,2.35h-2.16L109.01,7.86z"/>
	<path fill="#E91B3C" d="M115.3,11.04h4.29c2.4,0,4.39,0.77,4.39,3.51c0,2.71-1.84,3.54-4.28,3.54h-1.86v4.51h-2.55V11.04z
		 M117.85,15.94h1.7c0.9,0,1.8-0.31,1.8-1.39c0-1.19-1.21-1.35-2.19-1.35h-1.31V15.94z"/>
	<path fill="#E91B3C" d="M135.33,18.14c0,2.73-1.67,4.75-4.87,4.75c-3.22,0-4.88-2.02-4.88-4.75v-7.1h2.55v7
		c0,1.42,0.98,2.5,2.33,2.5c1.34,0,2.32-1.08,2.32-2.5v-7h2.55V18.14z"/>
	<path fill="#E91B3C" d="M139.92,13.29h-3.3v-2.25h9.14v2.25h-3.3v9.31h-2.55V13.29z"/>
	<path fill="#E91B3C" d="M147.14,11.04H155v2.35h-5.31v2.16h5.01v2.35h-5.01v2.35h5.6v2.35h-8.15V11.04z M151.03,7.86h3.33
		l-2.82,2.35h-2.15L151.03,7.86z"/>
	<path fill="#E91B3C" d="M159.18,14.65c1.19,0,2.14,0.96,2.14,2.14c0,1.19-0.96,2.14-2.14,2.14s-2.14-0.96-2.14-2.14
		C157.04,15.61,157.99,14.65,159.18,14.65z"/>
	<path fill="#E91B3C" d="M163.48,11.04h7.85v2.35h-5.31v2.16h5.01v2.35h-5.01v2.35h5.6v2.35h-8.15V11.04z"/>
	<path fill="#E91B3C" d="M175.52,14.65c1.19,0,2.14,0.96,2.14,2.14c0,1.19-0.96,2.14-2.14,2.14s-2.14-0.96-2.14-2.14
		C173.37,15.61,174.33,14.65,175.52,14.65z"/>
	<path fill="#E91B3C" d="M185.43,13.87c-0.41-0.52-1.22-0.77-1.85-0.77c-0.72,0-1.71,0.33-1.71,1.19c0,2.11,5.32,0.75,5.32,4.8
		c0,2.58-2.07,3.8-4.46,3.8c-1.49,0-2.79-0.44-3.89-1.45l1.81-1.99c0.52,0.69,1.37,1.09,2.22,1.09c0.83,0,1.76-0.39,1.76-1.21
		c0-2.12-5.42-0.98-5.42-4.83c0-2.47,2.14-3.76,4.41-3.76c1.31,0,2.56,0.34,3.54,1.21L185.43,13.87z"/>
	<path fill="#E91B3C" d="M66.95,31.85c-0.51-0.6-1.24-0.95-2.19-0.95c-1.93,0-3.35,1.57-3.35,3.72s1.42,3.72,3.27,3.72
		c1.03,0,1.86-0.46,2.38-1.24l2.12,1.58c-0.96,1.37-2.6,2.01-4.18,2.01c-3.61,0-6.24-2.37-6.24-6.07s2.63-6.07,6.24-6.07
		c1.29,0,2.92,0.44,3.9,1.7L66.95,31.85z"/>
	<path fill="#E91B3C" d="M76.19,28.55c3.61,0,6.24,2.37,6.24,6.07s-2.63,6.07-6.24,6.07s-6.24-2.37-6.24-6.07
		S72.58,28.55,76.19,28.55z M76.19,38.35c2.17,0,3.59-1.57,3.59-3.72s-1.42-3.72-3.59-3.72s-3.59,1.57-3.59,3.72
		S74.02,38.35,76.19,38.35z"/>
	<path fill="#E91B3C" d="M84.15,28.84H88l2.66,7.54h0.03l2.68-7.54h3.84V40.4h-2.55v-8.87h-0.03L91.6,40.4h-1.94l-2.92-8.87H86.7
		v8.87h-2.55V28.84z"/>
	<path fill="#E91B3C" d="M99.56,28.84h3.85l2.66,7.54h0.03l2.68-7.54h3.84V40.4h-2.55v-8.87h-0.03L107,40.4h-1.94l-2.92-8.87h-0.03
		v8.87h-2.55V28.84z"/>
	<path fill="#E91B3C" d="M124.71,35.95c0,2.73-1.67,4.75-4.87,4.75c-3.22,0-4.88-2.02-4.88-4.75v-7.1h2.55v7
		c0,1.42,0.98,2.5,2.33,2.5c1.34,0,2.32-1.08,2.32-2.5v-7h2.55V35.95z"/>
	<path fill="#E91B3C" d="M127.05,28.84h3.46l4.92,8.03h0.03v-8.03h2.55V40.4h-3.33l-5.04-8.23h-0.03v8.23h-2.55V28.84z"/>
	<path fill="#E91B3C" d="M140.32,28.84h2.55V40.4h-2.55V28.84z"/>
	<path fill="#E91B3C" d="M150.9,31.67c-0.41-0.52-1.22-0.77-1.85-0.77c-0.72,0-1.71,0.33-1.71,1.19c0,2.11,5.32,0.75,5.32,4.8
		c0,2.58-2.07,3.8-4.46,3.8c-1.48,0-2.79-0.44-3.88-1.45l1.81-1.99c0.52,0.69,1.37,1.09,2.22,1.09c0.83,0,1.76-0.39,1.76-1.21
		c0-2.12-5.42-0.98-5.42-4.83c0-2.47,2.14-3.75,4.41-3.75c1.31,0,2.56,0.34,3.54,1.21L150.9,31.67z"/>
	<path fill="#E91B3C" d="M156.79,31.1h-3.3v-2.25h9.14v2.25h-3.3v9.31h-2.55V31.1z"/>
	<path fill="#E91B3C" d="M164.02,28.84h7.85v2.35h-5.31v2.16h5.01v2.35h-5.01v2.35h5.6v2.35h-8.15V28.84z"/>
	<path fill="#E91B3C" d="M179.92,31.67c-0.41-0.52-1.22-0.77-1.85-0.77c-0.72,0-1.71,0.33-1.71,1.19c0,2.11,5.32,0.75,5.32,4.8
		c0,2.58-2.07,3.8-4.46,3.8c-1.48,0-2.79-0.44-3.88-1.45l1.81-1.99c0.52,0.69,1.37,1.09,2.22,1.09c0.83,0,1.76-0.39,1.76-1.21
		c0-2.12-5.42-0.98-5.42-4.83c0-2.47,2.14-3.75,4.41-3.75c1.31,0,2.56,0.34,3.54,1.21L179.92,31.67z"/>
</g>
<g>
	<path opacity="0.8" fill="#E91B3C" d="M45.39,18.82c-0.46-2.6-1.16-5.14-2.1-7.59l-1.93,0.33c1.27,3.24,2.12,6.64,2.51,10.15
		L45.39,18.82z"/>
	<path opacity="0.8" fill="#E91B3C" d="M42.98,23.39c-0.29-4.04-1.19-7.97-2.66-11.66l-1,0.17l-0.97,0.16
		c1.83,4.43,2.79,9.22,2.79,14.16c0,4.97-0.97,9.8-2.82,14.27l1.97,0.34c1.48-3.69,2.39-7.62,2.69-11.66l-1.52-2.89L42.98,23.39z"/>
	<path fill="#E91B3C" d="M36.09,17.88c-0.46-1.77-1.07-3.5-1.81-5.16l-2,0.32c0.78,1.66,1.4,3.39,1.87,5.17L36.09,17.88z"/>
	<path fill="#E91B3C" d="M37.11,34.84c-0.45,1.76-1.05,3.48-1.77,5.14l1.92,0.33c0.7-1.67,1.28-3.38,1.73-5.15L37.11,34.84z"/>
	<path fill="#E91B3C" d="M36.95,22.56l-1.76,3.33c0,0.11,0.01,0.22,0.01,0.34c0,0.14-0.01,0.27-0.01,0.41l1.76,3.33
		c0.14-1.24,0.21-2.49,0.21-3.75C37.16,24.99,37.08,23.77,36.95,22.56z"/>
	<path opacity="0.8" fill="#E91B3C" d="M43.86,30.85c-0.4,3.51-1.25,6.92-2.53,10.16l1.94,0.33c0.94-2.45,1.65-4.99,2.11-7.6
		L43.86,30.85z"/>
	<path opacity="0.5" fill="#E91B3C" d="M50,10.07l-2.66,0.46c0.34,0.94,0.64,1.89,0.92,2.85L50,10.07z"/>
	<path opacity="0.5" fill="#E91B3C" d="M46.29,10.71l-1.96,0.34c0.77,2.04,1.38,4.15,1.83,6.3l1.38-2.62
		C47.19,13.36,46.78,12.02,46.29,10.71z"/>
	<path opacity="0.5" fill="#E91B3C" d="M44.31,41.52l1.96,0.33c0.48-1.32,0.9-2.66,1.26-4.03l-1.38-2.62
		C45.7,37.36,45.09,39.47,44.31,41.52z"/>
	<path opacity="0.5" fill="#E91B3C" d="M48.25,39.17c-0.28,0.96-0.59,1.92-0.93,2.86L50,42.49L48.25,39.17z"/>
	<path fill="#E91B3C" d="M32.29,39.46l1.99,0.34c0.74-1.66,1.34-3.37,1.8-5.13l-1.94-0.33C33.67,36.1,33.06,37.81,32.29,39.46z"/>
	<path fill="#E91B3C" d="M38.19,26.22c0,1.81-0.14,3.59-0.41,5.34l1.41,2.68c0.59-2.6,0.9-5.29,0.9-8.02c0-2.71-0.31-5.36-0.89-7.94
		l-1.42,2.69C38.05,22.69,38.19,24.45,38.19,26.22z"/>
	<path fill="#E91B3C" d="M19.65,51.93L30.32,41c1.21-2.16,2.15-4.45,2.79-6.84l-3.43-0.59l-7.13,7.28l-1.47-10.09l-9.16-4.49
		l9.15-4.54l1.47-10.1l7.14,7.35l3.44-0.59c-0.65-2.42-1.59-4.74-2.82-6.92L19.25,0.18c-0.06-0.04-0.12-0.07-0.18-0.1l-2.62,18.07
		L0,26.3l16.44,8.06l2.63,18.06c0.06-0.04,0.13-0.07,0.19-0.11L19.65,51.93z"/>
	<path fill="#E91B3C" d="M39,17.38c-0.44-1.76-1.02-3.48-1.72-5.15l-1.94,0.31c0.73,1.67,1.33,3.39,1.78,5.16L39,17.38z"/>
	<path fill="#E91B3C" d="M19.08,0l-0.01,0.07c0.06,0.04,0.12,0.07,0.18,0.1L19.08,0z"/>
	<path fill="#E91B3C" d="M19.09,52.5L19.09,52.5l0.17-0.17c-0.06,0.04-0.13,0.07-0.19,0.11L19.09,52.5L19.09,52.5z"/>
	<path fill="#E91B3C" d="M39.75,35.29l-0.55-1.05c-0.07,0.31-0.13,0.61-0.21,0.92L39.75,35.29z"/>
	<path fill="#E91B3C" d="M39.75,17.25L39,17.38c0.08,0.3,0.14,0.6,0.2,0.9L39.75,17.25z"/>
	<g>
		<path opacity="0.2" fill="#E91B3C" d="M33.11,34.16c-0.64,2.39-1.58,4.69-2.79,6.84l1.57-1.61l0.39,0.07
			c0.77-1.65,1.38-3.36,1.85-5.13L33.11,34.16z"/>
		<path opacity="0.2" fill="#E91B3C" d="M32.28,13.04L31.9,13.1l-1.59-1.63c1.23,2.18,2.17,4.5,2.82,6.92l1.03-0.18
			C33.68,16.43,33.06,14.7,32.28,13.04z"/>
		<path opacity="0.2" fill="#E91B3C" d="M36.09,17.88l1.03-0.18c-0.45-1.77-1.05-3.49-1.78-5.16l-1.06,0.17
			C35.03,14.38,35.64,16.1,36.09,17.88z"/>
		<path opacity="0.2" fill="#E91B3C" d="M35.19,25.89l-0.2,0.38l0.2,0.37c0-0.14,0.01-0.27,0.01-0.41
			C35.2,26.11,35.19,26,35.19,25.89z"/>
		<path opacity="0.2" fill="#E91B3C" d="M36.08,34.67c-0.46,1.76-1.06,3.48-1.8,5.13l1.06,0.18c0.73-1.66,1.32-3.38,1.77-5.14
			L36.08,34.67z"/>
		<path opacity="0.2" fill="#E91B3C" d="M37.16,26.23c0,1.26-0.08,2.51-0.21,3.75l0.84,1.59c0.27-1.75,0.41-3.53,0.41-5.34
			c0-1.78-0.14-3.53-0.41-5.26l-0.84,1.59C37.08,23.77,37.16,24.99,37.16,26.23z"/>
		<path opacity="0.2" fill="#E91B3C" d="M42.97,29.17c-0.3,4.04-1.21,7.97-2.69,11.66L41.33,41c1.28-3.24,2.13-6.65,2.53-10.16
			L42.97,29.17z"/>
		<path opacity="0.2" fill="#E91B3C" d="M42.98,23.39l0.89-1.69c-0.39-3.51-1.24-6.91-2.51-10.15l-1.04,0.18
			C41.79,15.42,42.69,19.35,42.98,23.39z"/>
		<path opacity="0.2" fill="#E91B3C" d="M41.13,26.22c0-4.94-0.96-9.73-2.79-14.16l-1.06,0.17c0.7,1.67,1.28,3.39,1.72,5.15
			l0.75-0.13l-0.54,1.03c0.58,2.58,0.89,5.24,0.89,7.94c0,2.73-0.31,5.42-0.9,8.02l0.55,1.05l-0.76-0.13
			c-0.45,1.76-1.03,3.48-1.73,5.15l1.05,0.18C40.17,36.02,41.13,31.2,41.13,26.22z"/>
		<path opacity="0.2" fill="#E91B3C" d="M46.17,17.34c-0.45-2.15-1.06-4.26-1.83-6.3l-1.04,0.18c0.93,2.45,1.64,4.99,2.1,7.59
			L46.17,17.34z"/>
		<path opacity="0.2" fill="#E91B3C" d="M46.16,35.21l-0.77-1.47c-0.46,2.61-1.17,5.15-2.11,7.6l1.04,0.18
			C45.09,39.47,45.7,37.36,46.16,35.21z"/>
		<path opacity="0.2" fill="#E91B3C" d="M47.54,37.83c-0.36,1.36-0.78,2.71-1.26,4.03l1.04,0.18c0.34-0.94,0.65-1.9,0.93-2.86
			L47.54,37.83z"/>
		<path opacity="0.2" fill="#E91B3C" d="M47.55,14.72l0.71-1.34c-0.28-0.96-0.58-1.91-0.92-2.85l-1.04,0.18
			C46.78,12.02,47.19,13.36,47.55,14.72z"/>
	</g>
</g>
</svg>
