<?xml version="1.0" encoding="utf-8"?>
<!-- Generator: Adobe Illustrator 25.4.1, SVG Export Plug-In . SVG Version: 6.00 Build 0)  -->
<svg version="1.1" id="Calque_1" xmlns="http://www.w3.org/2000/svg" xmlns:xlink="http://www.w3.org/1999/xlink" x="0px" y="0px"
	 viewBox="0 0 1036 74" style="enable-background:new 0 0 1036 74;" xml:space="preserve">
<style type="text/css">
	.st0{fill:#FFFFFF;}
</style>
<g>
	<g>
		<path class="st0" d="M487.57,3c-12.82,0-20.89,7.58-20.89,17.39c0,9.71,6.31,14.86,14.86,19.72c12.05,6.51,13.31,9.13,13.31,13.11
			c0,4.18-3.5,7.48-9.23,7.48c-6.41,0-12.73-3.01-18.55-8.94v13.41C473,68.86,479.8,71,486.69,71c12.43,0,20.98-7.58,20.98-18.17
			c0-10.01-5.34-14.77-17.87-21.66c-9.23-5.05-10.49-7.77-10.49-11.17c0-3.98,3.11-6.8,8.84-6.8c5.93,0,11.56,2.53,16.81,7.09V7.95
			C500.1,4.85,493.98,3,487.57,3 M389.75,3.87v66.25h12.53V23.69l40.8,46.43h11.27V3.87h-12.53V50.6L400.73,3.87H389.75z
			 M342.25,14.56c14.96,0,22.93,11.37,22.93,22.34c0,14.67-10.3,22.54-23.31,22.54c-12.63,0-22.73-9.13-22.73-22.34
			C319.13,24.27,327.77,14.56,342.25,14.56 M342.15,3c-24.38,0-36.14,17.29-36.14,34.1c0,18.07,13.41,33.9,35.75,33.9
			c23.31,0,36.53-16.03,36.53-34.1C378.29,18.06,364.01,3,342.15,3 M242.97,3.87v10.78h36.91l-39.73,55.47h62.07V59.34h-39.63
			l39.63-55.47H242.97z M218.88,70.13h12.82V3.87h-12.82V70.13z M169.14,13.59h7.77c7.09,0,10.69,3.59,10.69,9.52
			c0,7.87-5.25,9.71-11.95,9.71h-6.51V13.59z M156.32,3.87v66.25h12.82V42.25h3.69c5.15,0,9.03,1.85,14.96,12.14l9.13,15.74h14.47
			l-10.2-17.19c-5.34-8.84-7.48-11.07-11.56-13.5c7.38-3.11,10.98-8.94,10.98-16.42c0-10.59-7.38-19.14-21.76-19.14H156.32z
			 M108.82,14.56c14.96,0,22.93,11.37,22.93,22.34c0,14.67-10.3,22.54-23.31,22.54c-12.63,0-22.73-9.13-22.73-22.34
			C85.7,24.27,94.34,14.56,108.82,14.56 M108.72,3C84.34,3,72.58,20.29,72.58,37.1c0,18.07,13.41,33.9,35.75,33.9
			c23.31,0,36.53-16.03,36.53-34.1C144.86,18.06,130.58,3,108.72,3 M0.6,3.87v66.25h12.82V42.25H48.3v27.88h12.82V3.87H48.3v27.3
			H13.42V3.87H0.6z"/>
	</g>
	<rect x="527.66" y="3" class="st0" width="507.08" height="68"/>
</g>
</svg>
