<?xml version="1.0" encoding="UTF-8" standalone="no"?>
<svg
   xmlns:dc="http://purl.org/dc/elements/1.1/"
   xmlns:cc="http://creativecommons.org/ns#"
   xmlns:rdf="http://www.w3.org/1999/02/22-rdf-syntax-ns#"
   xmlns:svg="http://www.w3.org/2000/svg"
   xmlns="http://www.w3.org/2000/svg"
   height="85.737862"
   width="1053.5592"
   xml:space="preserve"
   viewBox="0 0 1053.5592 85.737862"
   y="0px"
   x="0px"
   id="Calque_1"
   version="1.1"><metadata
   id="metadata17"><rdf:RDF><cc:Work
       rdf:about=""><dc:format>image/svg+xml</dc:format><dc:type
         rdf:resource="http://purl.org/dc/dcmitype/StillImage" /><dc:title></dc:title></cc:Work></rdf:RDF></metadata><defs
   id="defs15" />
<style
   id="style2"
   type="text/css">
	.st0{fill:#FFFFFF;}
</style>
<rect
   y="0"
   x="0"
   height="85.737862"
   width="1053.5592"
   id="rect4527"
   style="opacity:1;fill:#0000ff;fill-opacity:1;stroke:none;stroke-width:11.40690422;stroke-miterlimit:4;stroke-dasharray:34.22071503, 11.40690501;stroke-dashoffset:0;stroke-opacity:1" /><g
   transform="translate(9.1096222,5.8689308)"
   id="g10">
	<g
   id="g6">
		<path
   style="fill:#ffffff"
   id="path4"
   d="m 487.57,3 c -12.82,0 -20.89,7.58 -20.89,17.39 0,9.71 6.31,14.86 14.86,19.72 12.05,6.51 13.31,9.13 13.31,13.11 0,4.18 -3.5,7.48 -9.23,7.48 -6.41,0 -12.73,-3.01 -18.55,-8.94 V 65.17 C 473,68.86 479.8,71 486.69,71 c 12.43,0 20.98,-7.58 20.98,-18.17 0,-10.01 -5.34,-14.77 -17.87,-21.66 -9.23,-5.05 -10.49,-7.77 -10.49,-11.17 0,-3.98 3.11,-6.8 8.84,-6.8 5.93,0 11.56,2.53 16.81,7.09 V 7.95 C 500.1,4.85 493.98,3 487.57,3 m -97.82,0.87 v 66.25 h 12.53 V 23.69 l 40.8,46.43 h 11.27 V 3.87 H 441.82 V 50.6 L 400.73,3.87 Z m -47.5,10.69 c 14.96,0 22.93,11.37 22.93,22.34 0,14.67 -10.3,22.54 -23.31,22.54 -12.63,0 -22.73,-9.13 -22.73,-22.34 -0.01,-12.83 8.63,-22.54 23.11,-22.54 M 342.15,3 c -24.38,0 -36.14,17.29 -36.14,34.1 0,18.07 13.41,33.9 35.75,33.9 23.31,0 36.53,-16.03 36.53,-34.1 C 378.29,18.06 364.01,3 342.15,3 m -99.18,0.87 v 10.78 h 36.91 l -39.73,55.47 h 62.07 V 59.34 H 262.59 L 302.22,3.87 Z M 218.88,70.13 H 231.7 V 3.87 H 218.88 Z M 169.14,13.59 h 7.77 c 7.09,0 10.69,3.59 10.69,9.52 0,7.87 -5.25,9.71 -11.95,9.71 h -6.51 V 13.59 Z M 156.32,3.87 v 66.25 h 12.82 V 42.25 h 3.69 c 5.15,0 9.03,1.85 14.96,12.14 l 9.13,15.74 h 14.47 l -10.2,-17.19 c -5.34,-8.84 -7.48,-11.07 -11.56,-13.5 7.38,-3.11 10.98,-8.94 10.98,-16.42 0,-10.59 -7.38,-19.14 -21.76,-19.14 h -22.53 z m -47.5,10.69 c 14.96,0 22.93,11.37 22.93,22.34 0,14.67 -10.3,22.54 -23.31,22.54 C 95.81,59.44 85.71,50.31 85.71,37.1 85.7,24.27 94.34,14.56 108.82,14.56 M 108.72,3 C 84.34,3 72.58,20.29 72.58,37.1 72.58,55.17 85.99,71 108.33,71 131.64,71 144.86,54.97 144.86,36.9 144.86,18.06 130.58,3 108.72,3 M 0.6,3.87 V 70.12 H 13.42 V 42.25 H 48.3 V 70.13 H 61.12 V 3.87 H 48.3 v 27.3 H 13.42 V 3.87 Z"
   class="st0" />
	</g>
	<rect
   style="fill:#ffffff"
   id="rect8"
   height="68"
   width="507.07999"
   class="st0"
   y="3"
   x="527.65997" />
</g>
</svg>