<svg xmlns:xlink="http://www.w3.org/1999/xlink" id="Calque_1" xmlns="http://www.w3.org/2000/svg" viewBox="0 0 370.69 196.39" width="1000"  height="529.7957862364779" ><defs><style>.cls-1{fill:#004473;}.cls-2{fill:#e8e8e8;}.cls-3{fill:#c00b25;}</style></defs><path class="cls-1" d="M127.28,102.45h-4.37v6.15h-5.56v-21.84h9.77c5.77,0,9.08,2.74,9.08,7.61,0,3.34-1.41,5.74-3.96,7.02l4.59,7.21h-6.3l-3.25-6.15Zm-.16-4.37c2.4,0,3.81-1.22,3.81-3.53s-1.41-3.43-3.81-3.43h-4.21v6.96h4.21Z"/><path class="cls-1" d="M150.94,106.07c-1.31,1.78-3.4,2.65-6.02,2.65-3.4,0-5.59-2.19-5.59-5.03s2.28-4.68,6.15-4.71h5.4v-.97c0-2.4-1.5-3.84-4.4-3.84-1.81,0-3.5,.69-5.21,1.87l-1.03-1.78c2.12-1.4,3.9-2.21,6.71-2.21,4.06,0,6.3,2.15,6.34,5.68l.03,10.86h-2.37v-2.53Zm-.03-3.15v-1.97h-5.12c-2.75,0-4.18,.84-4.18,2.65s1.47,3,3.78,3c2.78,0,4.9-1.4,5.52-3.68Z"/><path class="cls-1" d="M168.36,93.56l-.94,1.93c-1.28-.81-2.93-1.34-4.46-1.34-1.84,0-3.25,.66-3.25,2.19,0,3.65,9.18,1.78,9.18,7.68,0,3.25-2.87,4.68-6.02,4.68-2.34,0-4.74-.81-6.3-2.31l.94-1.84c1.4,1.31,3.53,2.09,5.46,2.09s3.5-.72,3.53-2.34c.09-3.96-9.11-1.93-9.08-7.77,0-3.15,2.72-4.46,5.71-4.46,1.97,0,3.87,.56,5.24,1.5Z"/><path class="cls-1" d="M182.5,93.56l-.94,1.93c-1.28-.81-2.93-1.34-4.46-1.34-1.84,0-3.25,.66-3.25,2.19,0,3.65,9.18,1.78,9.18,7.68,0,3.25-2.87,4.68-6.02,4.68-2.34,0-4.74-.81-6.3-2.31l.94-1.84c1.4,1.31,3.53,2.09,5.46,2.09s3.5-.72,3.53-2.34c.09-3.96-9.11-1.93-9.08-7.77,0-3.15,2.72-4.46,5.71-4.46,1.97,0,3.87,.56,5.24,1.5Z"/><path class="cls-1" d="M201.2,101.33h-13.42c.44,3.21,2.78,5.24,5.96,5.24,2.03,0,3.81-.72,5.09-2.06l1.34,1.44c-1.56,1.75-3.87,2.74-6.62,2.74-4.84,0-8.18-3.4-8.18-8.3s3.37-8.3,8.14-8.3c5.31-.03,7.93,3.65,7.68,9.24Zm-2.19-2c-.16-3.15-2.28-5.15-5.49-5.15s-5.37,2.03-5.74,5.15h11.23Z"/><path class="cls-1" d="M232.57,98.46v10.14h-2.43v-9.49c0-2.93-1.72-4.65-4.56-4.65-3.4,.09-5.37,2.53-5.37,6.05v8.08h-2.47v-9.49c0-2.93-1.68-4.65-4.56-4.65-3.37,.09-5.4,2.53-5.4,6.05v8.08h-2.4v-16.45h2.4v3.71c1.09-2.56,3.31-3.78,6.27-3.81,3.09,0,5.21,1.59,5.9,4.31,1.03-2.9,3.34-4.28,6.49-4.31,3.84,0,6.12,2.43,6.12,6.4Z"/><path class="cls-1" d="M254.8,100.42c0,4.87-3.18,8.27-7.83,8.27-2.93,0-5.18-1.34-6.4-3.62v3.53h-2.43v-23.16h2.43v10.27c1.22-2.31,3.46-3.65,6.34-3.65,4.65,0,7.9,3.43,7.9,8.36Zm-2.47-.06c0-3.53-2.43-6.12-5.87-6.12s-5.9,2.56-5.9,6.12,2.43,6.12,5.9,6.12,5.87-2.56,5.87-6.12Z"/><path class="cls-1" d="M259.24,108.6v-23.16h2.43v23.16h-2.43Z"/><path class="cls-1" d="M281.94,101.33h-13.42c.44,3.21,2.78,5.24,5.96,5.24,2.03,0,3.81-.72,5.09-2.06l1.34,1.44c-1.56,1.75-3.87,2.74-6.62,2.74-4.84,0-8.18-3.4-8.18-8.3s3.37-8.3,8.15-8.3c5.3-.03,7.93,3.65,7.68,9.24Zm-2.19-2c-.16-3.15-2.28-5.15-5.49-5.15s-5.37,2.03-5.74,5.15h11.23Z"/><path class="cls-1" d="M313.31,98.46v10.14h-2.43v-9.49c0-2.93-1.72-4.65-4.56-4.65-3.4,.09-5.37,2.53-5.37,6.05v8.08h-2.47v-9.49c0-2.93-1.68-4.65-4.56-4.65-3.37,.09-5.4,2.53-5.4,6.05v8.08h-2.4v-16.45h2.4v3.71c1.09-2.56,3.31-3.78,6.27-3.81,3.09,0,5.21,1.59,5.9,4.31,1.03-2.9,3.34-4.28,6.49-4.31,3.84,0,6.12,2.43,6.12,6.4Z"/><path class="cls-1" d="M332.89,101.33h-13.42c.44,3.21,2.78,5.24,5.96,5.24,2.03,0,3.81-.72,5.09-2.06l1.34,1.44c-1.56,1.75-3.87,2.74-6.62,2.74-4.84,0-8.18-3.4-8.18-8.3s3.37-8.3,8.15-8.3c5.3-.03,7.93,3.65,7.68,9.24Zm-2.19-2c-.16-3.15-2.28-5.15-5.49-5.15s-5.37,2.03-5.74,5.15h11.23Z"/><path class="cls-1" d="M352.12,98.46v10.14h-2.43v-9.49c0-2.9-1.75-4.62-4.65-4.62-3.25,.03-5.24,2.15-5.52,5.27v8.83h-2.44v-16.45h2.44v3.62c1.15-2.5,3.37-3.68,6.36-3.71,3.93,0,6.24,2.43,6.24,6.4Z"/><path class="cls-1" d="M366.04,107.47c-1.15,.78-2.4,1.22-3.72,1.25-2.4,0-4.18-1.44-4.18-4.68v-9.39h-2.37v-1.97h2.37v-4.34h2.4v4.34l5.21-.03v2h-5.21v8.96c0,2,.78,2.75,2.18,2.75,.84,0,1.72-.28,2.62-.84l.69,1.96Z"/><path class="cls-1" d="M107.88,140.11l-10.05-13.45v13.45h-5.21v-21.84h4.9l10.08,13.48v-13.48h5.18v21.84h-4.9Z"/><path class="cls-1" d="M132.02,129.13v10.98h-5.27v-1.93c-1.09,1.44-2.87,2.19-5.15,2.19-3.59,0-5.77-2.19-5.77-5.28s2.28-5.05,6.46-5.08h4.43v-.25c0-1.65-1.09-2.65-3.28-2.65-1.41,0-3.25,.5-5.03,1.41l-1.53-3.56c2.62-1.22,4.99-1.9,7.8-1.9,4.62,0,7.3,2.28,7.33,6.09Zm-5.3,5.27v-1.5h-3.4c-1.62,0-2.43,.56-2.43,1.81s.87,2,2.37,2c1.69,0,3.12-.94,3.46-2.31Z"/><path class="cls-1" d="M146.72,139.21c-1.22,.72-2.87,1.15-4.49,1.15-3.25,0-5.59-1.84-5.59-5.34v-7.43h-2.34v-3.53h2.34v-4.68h5.37v4.65h4.4v3.56h-4.4v6.59c0,1.31,.56,1.87,1.56,1.84,.56,0,1.28-.22,2.09-.56l1.06,3.75Z"/><path class="cls-1" d="M155,118.45c0,1.68-1.19,2.87-2.84,2.87s-2.84-1.19-2.84-2.87,1.19-2.84,2.84-2.84,2.84,1.19,2.84,2.84Zm-5.56,21.66v-16.82h5.37v16.82h-5.37Z"/><path class="cls-1" d="M176.13,131.69c0,5.18-3.68,8.61-9.18,8.61s-9.21-3.43-9.21-8.61,3.68-8.59,9.21-8.59,9.18,3.4,9.18,8.59Zm-12.95,.06c0,2.62,1.53,4.37,3.78,4.37s3.75-1.75,3.75-4.37-1.53-4.37-3.75-4.37-3.78,1.78-3.78,4.37Z"/><path class="cls-1" d="M196.2,129.5v10.61h-5.37v-9.11c0-1.97-1.15-3.18-2.97-3.18-1.96,0-3.21,1.4-3.43,3.4v8.89h-5.4v-16.82h5.4v2.74c1.19-1.97,3.12-2.96,5.62-3,3.71,0,6.15,2.53,6.15,6.46Z"/><path class="cls-1" d="M214.94,129.13v10.98h-5.28v-1.93c-1.09,1.44-2.87,2.19-5.15,2.19-3.59,0-5.77-2.19-5.77-5.28s2.28-5.05,6.46-5.08h4.43v-.25c0-1.65-1.09-2.65-3.28-2.65-1.4,0-3.25,.5-5.02,1.41l-1.53-3.56c2.62-1.22,4.99-1.9,7.8-1.9,4.62,0,7.3,2.28,7.34,6.09Zm-5.31,5.27v-1.5h-3.4c-1.62,0-2.43,.56-2.43,1.81s.87,2,2.37,2c1.68,0,3.12-.94,3.46-2.31Z"/><path class="cls-1" d="M218.94,140.11v-23.16h5.4v23.16h-5.4Z"/><g><path class="cls-2" d="M21.32,44.12C36.2,17.7,66.74,9.47,93.47,15.66l-.58-1.74c-28.25-6.82-61.49,1.42-78.35,29.72,2.3,.15,4.56,.32,6.78,.48Z"/><path class="cls-1" d="M17.56,52.12c-2.34-.09-4.73-.17-7.17-.25-1.84,4.37-3.3,9.08-4.28,14.12-5.78,29.78,5.7,61.38,30.88,84.39,2.19-2.91,4.32-5.72,6.39-8.43C20.73,121.1,9.77,92.79,13.95,65.76c.75-4.87,1.99-9.42,3.61-13.64Z"/><path class="cls-3" d="M97.73,15.23l.62,1.72c13.21,3.9,25.48,11.13,35.35,19.92,.33-.22,.66-.44,.99-.64-10.28-9.2-23.11-16.82-36.96-20.99Z"/><path class="cls-3" d="M100.48,22.84l.69,1.9c10.38,2.83,20.19,8.4,28.2,15.36,.35-.28,.69-.57,1.03-.84-8.46-7.39-18.86-13.36-29.91-16.42Z"/><path class="cls-2" d="M46.67,46.32c8.63-18.94,29.15-26.48,49.43-22.72l-.64-1.93c-21.78-4.29-44.43,3.5-54.25,24.12,1.85,.18,3.67,.36,5.46,.54Z"/><path class="cls-1" d="M44.18,53.51c-1.88-.13-3.79-.25-5.73-.36-1.04,3.71-1.71,7.7-1.89,11.96-.79,19.55,8.23,39.31,24.2,54.3,1.52-1.95,3.01-3.84,4.46-5.68-14.31-13.51-22.68-31.17-22.52-48.8,.04-4.06,.57-7.87,1.47-11.42Z"/><path class="cls-2" d="M64.35,48.29c5.46-13.29,19.2-19.5,34.16-17.42l-.7-2.12c-16.46-2.52-31.98,4.13-38.19,18.97,1.6,.19,3.18,.37,4.73,.56Z"/><path class="cls-1" d="M62.45,54.93c-1.6-.14-3.22-.28-4.86-.41-.59,3.11-.82,6.46-.59,10.01,.85,13.35,7.57,26.47,18.23,36.69,1.18-1.47,2.33-2.9,3.47-4.29-9.42-9.09-15.51-20.68-16.57-32.54-.3-3.35-.17-6.5,.33-9.44Z"/><path class="cls-3" d="M103,29.82l.76,2.09c7.91,2.06,15.47,6.22,21.76,11.54,.37-.34,.74-.68,1.11-1.01-6.79-5.8-15-10.36-23.63-12.62Z"/></g><path class="cls-1" d="M166.57,11.65C122.34,67.63,76.34,123.58,30.16,177.96c0,0-4.52,5.26-4.52,5.26l4.29-5.46C74.29,121.9,120.24,65.91,166.57,11.65h0Z"/><g><path class="cls-1" d="M159.94,67.39h2.41v9.07c-1.11,.97-2.42,1.72-3.94,2.24-1.52,.52-3.11,.78-4.79,.78-2.38,0-4.52-.52-6.42-1.56-1.9-1.04-3.4-2.48-4.48-4.33-1.09-1.84-1.63-3.91-1.63-6.2s.54-4.35,1.63-6.2c1.09-1.84,2.58-3.29,4.48-4.33,1.9-1.04,4.05-1.56,6.45-1.56,1.81,0,3.47,.29,4.99,.87,1.52,.58,2.8,1.43,3.84,2.56l-1.56,1.6c-1.88-1.86-4.27-2.78-7.16-2.78-1.92,0-3.66,.42-5.21,1.27-1.55,.85-2.77,2.03-3.65,3.53-.88,1.51-1.32,3.19-1.32,5.04s.44,3.53,1.32,5.03c.88,1.49,2.09,2.67,3.63,3.53,1.54,.86,3.27,1.29,5.19,1.29,2.44,0,4.52-.61,6.21-1.83v-8.01Z"/><path class="cls-1" d="M173.78,62.19c1.12-.61,2.51-.92,4.16-.92v2.34l-.58-.03c-1.88,0-3.35,.58-4.41,1.73-1.06,1.15-1.6,2.77-1.6,4.86v9.1h-2.41v-17.86h2.31v3.5c.57-1.2,1.41-2.11,2.53-2.72Z"/><path class="cls-1" d="M184.76,78.27c-1.38-.78-2.47-1.86-3.26-3.24-.79-1.38-1.19-2.94-1.19-4.69s.4-3.3,1.19-4.69c.79-1.38,1.88-2.46,3.26-3.23,1.38-.77,2.93-1.15,4.65-1.15s3.27,.39,4.65,1.15c1.38,.77,2.46,1.85,3.24,3.23,.78,1.38,1.17,2.94,1.17,4.69s-.39,3.31-1.17,4.69c-.78,1.38-1.86,2.46-3.24,3.24-1.38,.78-2.93,1.17-4.65,1.17s-3.27-.39-4.65-1.17Zm8.06-1.83c1.01-.58,1.79-1.4,2.36-2.46,.57-1.06,.85-2.27,.85-3.63s-.28-2.57-.85-3.63c-.57-1.06-1.35-1.88-2.36-2.46-1.01-.58-2.14-.87-3.41-.87s-2.41,.29-3.41,.87c-1.01,.58-1.8,1.4-2.38,2.46-.58,1.06-.87,2.27-.87,3.63s.29,2.57,.87,3.63c.58,1.06,1.37,1.88,2.38,2.46,1.01,.58,2.14,.87,3.41,.87s2.4-.29,3.41-.87Z"/><path class="cls-1" d="M219.49,61.41v17.86h-2.31v-3.26c-.63,1.09-1.51,1.93-2.61,2.53-1.11,.6-2.38,.9-3.8,.9-2.33,0-4.17-.65-5.52-1.95-1.35-1.3-2.02-3.21-2.02-5.72v-10.36h2.41v10.12c0,1.88,.46,3.31,1.39,4.28,.93,.97,2.25,1.46,3.97,1.46,1.88,0,3.36-.57,4.45-1.71,1.09-1.14,1.63-2.73,1.63-4.77v-9.37h2.41Z"/><path class="cls-1" d="M240,62.41c1.36,.76,2.42,1.83,3.19,3.21,.77,1.38,1.15,2.95,1.15,4.72s-.39,3.37-1.15,4.75c-.77,1.38-1.83,2.45-3.17,3.21-1.35,.76-2.87,1.14-4.57,1.14-1.45,0-2.76-.3-3.92-.9-1.17-.6-2.12-1.48-2.87-2.63v9.95h-2.41v-24.45h2.31v3.53c.72-1.18,1.68-2.08,2.87-2.72,1.19-.63,2.53-.95,4.02-.95,1.67,0,3.19,.38,4.55,1.14Zm-1.32,14.02c1.02-.58,1.82-1.4,2.39-2.46,.58-1.06,.87-2.27,.87-3.63s-.29-2.56-.87-3.62c-.58-1.05-1.38-1.87-2.39-2.46-1.02-.59-2.15-.88-3.4-.88s-2.41,.29-3.41,.88c-1.01,.59-1.8,1.41-2.38,2.46-.58,1.05-.87,2.26-.87,3.62s.29,2.57,.87,3.63c.58,1.06,1.37,1.88,2.38,2.46,1.01,.58,2.14,.87,3.41,.87s2.38-.29,3.4-.87Z"/><path class="cls-1" d="M264.82,71.09h-14.94c.14,1.86,.85,3.36,2.14,4.5,1.29,1.14,2.92,1.71,4.89,1.71,1.11,0,2.13-.2,3.06-.59,.93-.4,1.73-.98,2.41-1.75l1.36,1.56c-.79,.95-1.78,1.68-2.97,2.17-1.19,.5-2.5,.75-3.92,.75-1.83,0-3.46-.39-4.87-1.17-1.41-.78-2.52-1.86-3.31-3.24-.79-1.38-1.19-2.94-1.19-4.69s.38-3.3,1.14-4.69c.76-1.38,1.8-2.46,3.12-3.23,1.32-.77,2.81-1.15,4.46-1.15s3.13,.39,4.45,1.15c1.31,.77,2.34,1.84,3.09,3.21,.75,1.37,1.12,2.94,1.12,4.7l-.03,.75Zm-12.95-6.09c-1.17,1.1-1.83,2.53-1.99,4.29h12.66c-.16-1.77-.82-3.2-1.99-4.29-1.17-1.1-2.62-1.65-4.36-1.65s-3.16,.55-4.33,1.65Z"/></g></svg>