<?xml version="1.0" encoding="UTF-8" standalone="no"?>
<!DOCTYPE svg PUBLIC "-//W3C//DTD SVG 1.1//EN" "http://www.w3.org/Graphics/SVG/1.1/DTD/svg11.dtd">
<svg width="100%" height="100%" viewBox="0 0 124 47" version="1.1" xmlns="http://www.w3.org/2000/svg" xmlns:xlink="http://www.w3.org/1999/xlink" xml:space="preserve" xmlns:serif="http://www.serif.com/" style="fill-rule:evenodd;clip-rule:evenodd;stroke-linejoin:round;stroke-miterlimit:2;">
    <g id="g36" transform="matrix(1.33333,0,0,-1.33333,0.862667,21.2452)">
        <path id="path38" d="M0,0C-0.051,0.051 -0.077,0.113 -0.077,0.186L-0.077,15.013C-0.077,15.086 -0.051,15.148 0,15.199C0.051,15.25 0.113,15.276 0.186,15.276L2.752,15.276C2.826,15.276 2.887,15.25 2.939,15.199C2.99,15.148 3.016,15.086 3.016,15.013L3.016,2.687C3.016,2.614 3.052,2.577 3.125,2.577L10.297,2.577C10.37,2.577 10.432,2.551 10.484,2.5C10.535,2.449 10.561,2.387 10.561,2.314L10.561,0.186C10.561,0.113 10.535,0.051 10.484,0C10.432,-0.051 10.37,-0.077 10.297,-0.077L0.186,-0.077C0.113,-0.077 0.051,-0.051 0,0" style="fill:rgb(227,38,91);fill-rule:nonzero;"/>
    </g>
    <g id="g40" transform="matrix(1.33333,0,0,-1.33333,21.2892,11.3464)">
        <path id="path42" d="M0,0C-0.059,-0.19 -0.11,-0.424 -0.154,-0.702C-0.154,-0.775 -0.117,-0.811 -0.044,-0.811L3.75,-0.811C3.838,-0.811 3.867,-0.775 3.838,-0.702C3.765,-0.278 3.728,-0.073 3.728,-0.088C3.597,0.351 3.367,0.691 3.038,0.932C2.708,1.173 2.303,1.294 1.82,1.294C0.899,1.294 0.292,0.863 0,0M7.018,-2.566C7.003,-2.741 6.909,-2.829 6.733,-2.829L-0.044,-2.829C-0.132,-2.829 -0.161,-2.866 -0.132,-2.939C-0.088,-3.232 -0.008,-3.524 0.11,-3.816C0.49,-4.635 1.264,-5.045 2.434,-5.045C3.37,-5.03 4.109,-4.65 4.65,-3.904C4.708,-3.816 4.774,-3.772 4.847,-3.772C4.891,-3.772 4.942,-3.802 5.001,-3.86L6.58,-5.417C6.653,-5.491 6.689,-5.557 6.689,-5.615C6.689,-5.644 6.66,-5.703 6.602,-5.79C6.119,-6.39 5.497,-6.854 4.737,-7.183C3.977,-7.512 3.143,-7.676 2.237,-7.676C0.979,-7.676 -0.084,-7.391 -0.954,-6.821C-1.824,-6.251 -2.45,-5.454 -2.83,-4.43C-3.136,-3.699 -3.29,-2.741 -3.29,-1.557C-3.29,-0.753 -3.18,-0.044 -2.961,0.57C-2.625,1.608 -2.036,2.435 -1.196,3.049C-0.355,3.663 0.643,3.97 1.798,3.97C3.26,3.97 4.434,3.546 5.318,2.698C6.203,1.85 6.74,0.716 6.931,-0.702C7.018,-1.258 7.047,-1.879 7.018,-2.566" style="fill:rgb(227,38,91);fill-rule:nonzero;"/>
    </g>
    <g id="g44" transform="matrix(1.33333,0,0,-1.33333,49.304,9.31413)">
        <path id="path46" d="M0,0C0.409,0.387 0.614,0.896 0.614,1.525C0.614,2.168 0.409,2.687 0,3.082C-0.41,3.476 -0.951,3.674 -1.623,3.674L-4.409,3.674C-4.482,3.674 -4.518,3.637 -4.518,3.564L-4.518,-0.471C-4.518,-0.545 -4.482,-0.581 -4.409,-0.581L-1.623,-0.581C-0.951,-0.581 -0.41,-0.387 0,0M1.382,5.757C2.113,5.363 2.679,4.803 3.082,4.08C3.484,3.356 3.685,2.526 3.685,1.59C3.685,0.669 3.476,-0.142 3.06,-0.844C2.643,-1.546 2.058,-2.091 1.305,-2.478C0.552,-2.866 -0.315,-3.059 -1.294,-3.059L-4.409,-3.059C-4.482,-3.059 -4.518,-3.096 -4.518,-3.169L-4.518,-8.762C-4.518,-8.835 -4.544,-8.897 -4.595,-8.948C-4.646,-9 -4.708,-9.025 -4.781,-9.025L-7.347,-9.025C-7.421,-9.025 -7.483,-9 -7.534,-8.948C-7.585,-8.897 -7.611,-8.835 -7.611,-8.762L-7.611,6.087C-7.611,6.16 -7.585,6.222 -7.534,6.273C-7.483,6.324 -7.421,6.35 -7.347,6.35L-1.162,6.35C-0.198,6.35 0.65,6.152 1.382,5.757" style="fill:rgb(227,38,91);fill-rule:nonzero;"/>
    </g>
    <g id="g48" transform="matrix(1.33333,0,0,-1.33333,63.8381,17.8384)">
        <path id="path50" d="M0,0C0.438,0.336 0.658,0.768 0.658,1.294L0.658,2.083C0.658,2.157 0.621,2.193 0.548,2.193L-1.031,2.193C-1.689,2.193 -2.204,2.069 -2.577,1.821C-2.95,1.572 -3.137,1.221 -3.137,0.768C-3.137,0.373 -2.998,0.062 -2.72,-0.165C-2.442,-0.391 -2.069,-0.504 -1.601,-0.504C-0.973,-0.504 -0.439,-0.337 -0,0M1.382,8.323C2.127,7.994 2.709,7.545 3.125,6.975C3.542,6.404 3.75,5.768 3.75,5.067L3.75,-2.369C3.75,-2.442 3.725,-2.504 3.674,-2.555C3.622,-2.607 3.56,-2.632 3.487,-2.632L0.921,-2.632C0.848,-2.632 0.786,-2.607 0.735,-2.555C0.683,-2.504 0.658,-2.442 0.658,-2.369L0.658,-1.645C0.658,-1.601 0.643,-1.572 0.614,-1.557C0.585,-1.543 0.555,-1.557 0.526,-1.601C-0.088,-2.405 -1.075,-2.807 -2.435,-2.807C-3.575,-2.807 -4.496,-2.53 -5.198,-1.974C-5.9,-1.418 -6.251,-0.6 -6.251,0.483C-6.251,1.608 -5.856,2.482 -5.067,3.104C-4.277,3.725 -3.151,4.036 -1.689,4.036L0.548,4.036C0.621,4.036 0.658,4.072 0.658,4.145L0.658,4.628C0.658,5.11 0.511,5.487 0.219,5.757C-0.073,6.028 -0.512,6.163 -1.097,6.163C-1.55,6.163 -1.927,6.083 -2.226,5.922C-2.526,5.761 -2.72,5.534 -2.808,5.242C-2.851,5.081 -2.947,5.008 -3.093,5.023L-5.746,5.373C-5.922,5.403 -6.002,5.468 -5.988,5.571C-5.929,6.185 -5.685,6.74 -5.253,7.238C-4.822,7.735 -4.252,8.122 -3.542,8.4C-2.833,8.678 -2.04,8.817 -1.163,8.817C-0.212,8.817 0.636,8.652 1.382,8.323" style="fill:rgb(227,38,91);fill-rule:nonzero;"/>
    </g>
    <g id="g52" transform="matrix(1.33333,0,0,-1.33333,80.8869,6.5212)">
        <path id="path54" d="M0,0C0.117,-0.059 0.161,-0.168 0.131,-0.329L-0.329,-2.829C-0.344,-3.005 -0.446,-3.056 -0.636,-2.983C-0.855,-2.91 -1.111,-2.873 -1.404,-2.873C-1.521,-2.873 -1.682,-2.888 -1.886,-2.917C-2.413,-2.961 -2.859,-3.155 -3.224,-3.498C-3.59,-3.842 -3.772,-4.299 -3.772,-4.869L-3.772,-10.857C-3.772,-10.93 -3.798,-10.992 -3.849,-11.043C-3.901,-11.094 -3.963,-11.12 -4.036,-11.12L-6.602,-11.12C-6.675,-11.12 -6.737,-11.094 -6.788,-11.043C-6.84,-10.992 -6.865,-10.93 -6.865,-10.857L-6.865,-0.11C-6.865,-0.037 -6.84,0.025 -6.788,0.077C-6.737,0.128 -6.675,0.154 -6.602,0.154L-4.036,0.154C-3.963,0.154 -3.901,0.128 -3.849,0.077C-3.798,0.025 -3.772,-0.037 -3.772,-0.11L-3.772,-0.943C-3.772,-0.987 -3.758,-1.017 -3.729,-1.031C-3.7,-1.046 -3.677,-1.038 -3.663,-1.009C-3.063,-0.132 -2.259,0.307 -1.25,0.307C-0.724,0.307 -0.307,0.205 0,0" style="fill:rgb(227,38,91);fill-rule:nonzero;"/>
    </g>
    <g id="g56" transform="matrix(1.33333,0,0,-1.33333,91.6336,9.51867)">
        <path id="path58" d="M0,0C-0.052,-0.051 -0.113,-0.077 -0.187,-0.077L-2.292,-0.077C-2.365,-0.077 -2.402,-0.113 -2.402,-0.186L-2.402,-4.836C-2.402,-5.319 -2.303,-5.677 -2.106,-5.911C-1.908,-6.145 -1.59,-6.262 -1.152,-6.262L-0.428,-6.262C-0.355,-6.262 -0.293,-6.287 -0.241,-6.338C-0.19,-6.39 -0.164,-6.452 -0.164,-6.525L-0.164,-8.608C-0.164,-8.77 -0.252,-8.865 -0.428,-8.894C-1.042,-8.923 -1.481,-8.937 -1.744,-8.937C-2.958,-8.937 -3.864,-8.737 -4.463,-8.334C-5.063,-7.932 -5.37,-7.176 -5.385,-6.064L-5.385,-0.186C-5.385,-0.113 -5.421,-0.077 -5.494,-0.077L-6.744,-0.077C-6.818,-0.077 -6.88,-0.051 -6.931,0C-6.982,0.051 -7.008,0.113 -7.008,0.186L-7.008,2.138C-7.008,2.211 -6.982,2.273 -6.931,2.325C-6.88,2.376 -6.818,2.402 -6.744,2.402L-5.494,2.402C-5.421,2.402 -5.385,2.438 -5.385,2.511L-5.385,5.121C-5.385,5.194 -5.359,5.256 -5.308,5.308C-5.257,5.359 -5.195,5.385 -5.121,5.385L-2.665,5.385C-2.592,5.385 -2.53,5.359 -2.479,5.308C-2.427,5.256 -2.402,5.194 -2.402,5.121L-2.402,2.511C-2.402,2.438 -2.365,2.402 -2.292,2.402L-0.187,2.402C-0.113,2.402 -0.052,2.376 0,2.325C0.051,2.273 0.077,2.211 0.077,2.138L0.077,0.186C0.077,0.113 0.051,0.051 0,0" style="fill:rgb(227,38,91);fill-rule:nonzero;"/>
    </g>
    <g id="g60" transform="matrix(1.33333,0,0,-1.33333,94.4405,21.2453)">
        <path id="path62" d="M0,0C-0.051,0.051 -0.077,0.113 -0.077,0.186L-0.077,10.955C-0.077,11.028 -0.051,11.09 0,11.142C0.051,11.193 0.113,11.219 0.187,11.219L2.753,11.219C2.826,11.219 2.888,11.193 2.939,11.142C2.99,11.09 3.016,11.028 3.016,10.955L3.016,0.186C3.016,0.113 2.99,0.051 2.939,0C2.888,-0.051 2.826,-0.077 2.753,-0.077L0.187,-0.077C0.113,-0.077 0.051,-0.051 0,0M0.263,12.962C-0.066,13.291 -0.23,13.704 -0.23,14.201C-0.23,14.713 -0.07,15.13 0.252,15.452C0.574,15.773 0.991,15.934 1.503,15.934C2.014,15.934 2.431,15.773 2.753,15.452C3.074,15.13 3.235,14.713 3.235,14.201C3.235,13.704 3.071,13.291 2.742,12.962C2.413,12.633 1.999,12.469 1.503,12.469C1.005,12.469 0.592,12.633 0.263,12.962" style="fill:rgb(227,38,91);fill-rule:nonzero;"/>
    </g>
    <g id="g64" transform="matrix(1.33333,0,0,-1.33333,3.07067,45.6488)">
        <path id="path66" d="M0,0C-0.731,0.277 -1.298,0.665 -1.7,1.162C-2.102,1.659 -2.303,2.222 -2.303,2.851L-2.303,3.071C-2.303,3.144 -2.278,3.206 -2.226,3.257C-2.175,3.308 -2.113,3.334 -2.04,3.334L0.395,3.334C0.468,3.334 0.53,3.308 0.581,3.257C0.632,3.206 0.658,3.144 0.658,3.071L0.658,3.048C0.658,2.727 0.837,2.453 1.195,2.226C1.553,1.999 2.003,1.886 2.544,1.886C3.041,1.886 3.443,1.985 3.75,2.182C4.058,2.38 4.211,2.624 4.211,2.917C4.211,3.18 4.079,3.378 3.816,3.509C3.553,3.641 3.122,3.78 2.522,3.926C1.835,4.101 1.294,4.269 0.899,4.43C-0.037,4.752 -0.783,5.147 -1.338,5.615C-1.894,6.083 -2.171,6.755 -2.171,7.632C-2.171,8.714 -1.751,9.574 -0.91,10.21C-0.069,10.846 1.045,11.164 2.434,11.164C3.37,11.164 4.189,11.014 4.891,10.714C5.593,10.414 6.137,9.994 6.525,9.453C6.912,8.912 7.106,8.298 7.106,7.611C7.106,7.537 7.08,7.475 7.029,7.424C6.978,7.373 6.916,7.348 6.843,7.348L4.496,7.348C4.423,7.348 4.361,7.373 4.31,7.424C4.258,7.475 4.233,7.537 4.233,7.611C4.233,7.932 4.068,8.203 3.739,8.422C3.411,8.641 2.975,8.751 2.434,8.751C1.952,8.751 1.557,8.663 1.25,8.488C0.943,8.312 0.789,8.071 0.789,7.764C0.789,7.471 0.939,7.252 1.239,7.106C1.539,6.96 2.04,6.806 2.742,6.646C2.902,6.602 3.085,6.554 3.29,6.503C3.494,6.452 3.714,6.39 3.948,6.317C4.986,6.009 5.805,5.615 6.404,5.132C7.004,4.65 7.303,3.948 7.303,3.027C7.303,1.944 6.876,1.1 6.02,0.494C5.165,-0.113 4.014,-0.417 2.566,-0.417C1.586,-0.417 0.731,-0.277 0,0" style="fill:rgb(227,38,91);fill-rule:nonzero;"/>
    </g>
    <g id="g68" transform="matrix(1.33333,0,0,-1.33333,23.4533,42.1104)">
        <path id="path70" d="M0,0C0.336,0.292 0.577,0.694 0.724,1.206C0.841,1.674 0.899,2.186 0.899,2.741C0.899,3.356 0.841,3.875 0.724,4.299C0.563,4.796 0.314,5.183 -0.022,5.461C-0.359,5.739 -0.768,5.878 -1.25,5.878C-1.747,5.878 -2.16,5.739 -2.489,5.461C-2.818,5.183 -3.056,4.796 -3.202,4.299C-3.319,3.948 -3.378,3.429 -3.378,2.741C-3.378,2.083 -3.327,1.572 -3.224,1.206C-3.078,0.694 -2.833,0.292 -2.489,0C-2.146,-0.293 -1.726,-0.439 -1.228,-0.439C-0.746,-0.439 -0.337,-0.293 -0,0M-4.387,-2.128C-5.264,-1.484 -5.864,-0.607 -6.185,0.504C-6.39,1.191 -6.492,1.937 -6.492,2.741C-6.492,3.604 -6.39,4.379 -6.185,5.067C-5.849,6.148 -5.242,6.997 -4.365,7.611C-3.487,8.225 -2.435,8.532 -1.206,8.532C-0.008,8.532 1.016,8.228 1.864,7.622C2.712,7.015 3.312,6.17 3.663,5.088C3.896,4.357 4.014,3.589 4.014,2.785C4.014,1.996 3.911,1.257 3.707,0.57C3.385,-0.57 2.789,-1.466 1.919,-2.117C1.049,-2.767 0,-3.092 -1.228,-3.092C-2.456,-3.092 -3.509,-2.771 -4.387,-2.128" style="fill:rgb(227,38,91);fill-rule:nonzero;"/>
    </g>
    <g id="g72" transform="matrix(1.33333,0,0,-1.33333,34.0248,45.064)">
        <path id="path74" d="M0,0C-0.856,0.585 -1.466,1.389 -1.831,2.413C-2.08,3.144 -2.204,4.006 -2.204,5.001C-2.204,5.98 -2.08,6.828 -1.831,7.545C-1.481,8.539 -0.874,9.321 -0.011,9.892C0.851,10.462 1.868,10.747 3.038,10.747C4.207,10.747 5.234,10.454 6.119,9.87C7.004,9.285 7.592,8.546 7.885,7.654C8.001,7.304 8.06,7.04 8.06,6.865L8.06,6.821C8.06,6.689 7.987,6.609 7.841,6.58L5.319,6.207L5.275,6.207C5.143,6.207 5.055,6.28 5.011,6.426L4.946,6.777C4.843,7.157 4.617,7.472 4.266,7.72C3.915,7.969 3.498,8.093 3.016,8.093C2.547,8.093 2.153,7.976 1.831,7.742C1.509,7.508 1.283,7.186 1.151,6.777C0.99,6.339 0.91,5.739 0.91,4.979C0.91,4.218 0.983,3.619 1.129,3.18C1.261,2.742 1.491,2.398 1.82,2.149C2.149,1.901 2.547,1.777 3.016,1.777C3.469,1.777 3.867,1.897 4.211,2.138C4.554,2.38 4.792,2.712 4.924,3.136C4.938,3.165 4.946,3.209 4.946,3.268C4.96,3.282 4.968,3.304 4.968,3.334C4.982,3.509 5.084,3.582 5.275,3.553L7.797,3.158C7.943,3.129 8.016,3.049 8.016,2.917C8.016,2.8 7.972,2.581 7.885,2.259C7.578,1.279 6.982,0.512 6.097,-0.044C5.212,-0.6 4.192,-0.877 3.038,-0.877C1.868,-0.877 0.855,-0.585 0,0" style="fill:rgb(227,38,91);fill-rule:nonzero;"/>
    </g>
    <g id="g76" transform="matrix(1.33333,0,0,-1.33333,47.3884,45.8975)">
        <path id="path78" d="M0,0C-0.051,0.051 -0.077,0.113 -0.077,0.186L-0.077,10.955C-0.077,11.028 -0.051,11.09 0,11.142C0.051,11.193 0.113,11.219 0.187,11.219L2.753,11.219C2.826,11.219 2.888,11.193 2.939,11.142C2.99,11.09 3.016,11.028 3.016,10.955L3.016,0.186C3.016,0.113 2.99,0.051 2.939,0C2.888,-0.051 2.826,-0.077 2.753,-0.077L0.187,-0.077C0.113,-0.077 0.051,-0.051 0,0M0.263,12.962C-0.066,13.291 -0.23,13.704 -0.23,14.201C-0.23,14.713 -0.069,15.13 0.252,15.452C0.574,15.773 0.991,15.934 1.502,15.934C2.014,15.934 2.431,15.773 2.753,15.452C3.074,15.13 3.235,14.713 3.235,14.201C3.235,13.704 3.071,13.291 2.742,12.962C2.413,12.633 2,12.469 1.502,12.469C1.005,12.469 0.592,12.633 0.263,12.962" style="fill:rgb(227,38,91);fill-rule:nonzero;"/>
    </g>
    <g id="g80" transform="matrix(1.33333,0,0,-1.33333,62.1711,42.4905)">
        <path id="path82" d="M0,0C0.438,0.336 0.658,0.768 0.658,1.294L0.658,2.083C0.658,2.157 0.621,2.193 0.548,2.193L-1.031,2.193C-1.689,2.193 -2.204,2.069 -2.577,1.821C-2.95,1.572 -3.137,1.221 -3.137,0.768C-3.137,0.373 -2.998,0.062 -2.72,-0.165C-2.442,-0.391 -2.069,-0.504 -1.601,-0.504C-0.973,-0.504 -0.439,-0.337 -0,0M1.382,8.323C2.127,7.994 2.709,7.545 3.125,6.975C3.542,6.404 3.75,5.768 3.75,5.067L3.75,-2.369C3.75,-2.442 3.725,-2.504 3.674,-2.555C3.622,-2.607 3.56,-2.632 3.487,-2.632L0.921,-2.632C0.848,-2.632 0.786,-2.607 0.735,-2.555C0.683,-2.504 0.658,-2.442 0.658,-2.369L0.658,-1.645C0.658,-1.601 0.643,-1.572 0.614,-1.557C0.585,-1.543 0.555,-1.557 0.526,-1.601C-0.088,-2.405 -1.075,-2.807 -2.435,-2.807C-3.575,-2.807 -4.496,-2.53 -5.198,-1.974C-5.9,-1.418 -6.251,-0.6 -6.251,0.482C-6.251,1.608 -5.856,2.482 -5.067,3.104C-4.277,3.725 -3.151,4.036 -1.689,4.036L0.548,4.036C0.621,4.036 0.658,4.072 0.658,4.145L0.658,4.628C0.658,5.11 0.512,5.487 0.219,5.757C-0.073,6.028 -0.512,6.163 -1.097,6.163C-1.55,6.163 -1.927,6.082 -2.226,5.922C-2.526,5.761 -2.72,5.534 -2.808,5.242C-2.851,5.081 -2.946,5.008 -3.093,5.023L-5.746,5.373C-5.922,5.403 -6.002,5.468 -5.988,5.571C-5.93,6.185 -5.684,6.74 -5.253,7.238C-4.822,7.735 -4.252,8.122 -3.542,8.4C-2.833,8.678 -2.04,8.817 -1.163,8.817C-0.212,8.817 0.636,8.652 1.382,8.323" style="fill:rgb(227,38,91);fill-rule:nonzero;"/>
    </g>
    <g id="g84" transform="matrix(1.33333,0,0,-1.33333,70.1691,45.8973)">
        <path id="path86" d="M0,0C-0.051,0.051 -0.077,0.113 -0.077,0.186L-0.077,15.013C-0.077,15.086 -0.051,15.148 0,15.199C0.051,15.25 0.113,15.276 0.186,15.276L2.753,15.276C2.826,15.276 2.887,15.25 2.939,15.199C2.99,15.148 3.016,15.086 3.016,15.013L3.016,0.186C3.016,0.113 2.99,0.051 2.939,0C2.887,-0.051 2.826,-0.077 2.753,-0.077L0.186,-0.077C0.113,-0.077 0.051,-0.051 0,0" style="fill:rgb(227,38,91);fill-rule:nonzero;"/>
    </g>
    <g id="g88" transform="matrix(1.33333,0,0,-1.33333,77.4209,45.8975)">
        <path id="path90" d="M0,0C-0.051,0.051 -0.077,0.113 -0.077,0.186L-0.077,10.955C-0.077,11.028 -0.051,11.09 0,11.142C0.051,11.193 0.113,11.219 0.187,11.219L2.753,11.219C2.826,11.219 2.888,11.193 2.939,11.142C2.99,11.09 3.016,11.028 3.016,10.955L3.016,0.186C3.016,0.113 2.99,0.051 2.939,0C2.888,-0.051 2.826,-0.077 2.753,-0.077L0.187,-0.077C0.113,-0.077 0.051,-0.051 0,0M0.263,12.962C-0.066,13.291 -0.23,13.704 -0.23,14.201C-0.23,14.713 -0.07,15.13 0.252,15.452C0.574,15.773 0.991,15.934 1.502,15.934C2.014,15.934 2.431,15.773 2.753,15.452C3.074,15.13 3.235,14.713 3.235,14.201C3.235,13.704 3.071,13.291 2.742,12.962C2.413,12.633 1.999,12.469 1.502,12.469C1.005,12.469 0.592,12.633 0.263,12.962" style="fill:rgb(227,38,91);fill-rule:nonzero;"/>
    </g>
    <g id="g92" transform="matrix(1.33333,0,0,-1.33333,87.2317,45.6488)">
        <path id="path94" d="M0,0C-0.731,0.277 -1.298,0.665 -1.7,1.162C-2.102,1.659 -2.303,2.222 -2.303,2.851L-2.303,3.071C-2.303,3.144 -2.277,3.206 -2.226,3.257C-2.175,3.308 -2.113,3.334 -2.04,3.334L0.395,3.334C0.468,3.334 0.53,3.308 0.581,3.257C0.632,3.206 0.658,3.144 0.658,3.071L0.658,3.048C0.658,2.727 0.837,2.453 1.195,2.226C1.553,1.999 2.003,1.886 2.544,1.886C3.041,1.886 3.443,1.985 3.75,2.182C4.057,2.38 4.211,2.624 4.211,2.917C4.211,3.18 4.08,3.378 3.816,3.509C3.553,3.641 3.122,3.78 2.522,3.926C1.835,4.101 1.294,4.269 0.899,4.43C-0.037,4.752 -0.782,5.147 -1.338,5.615C-1.894,6.083 -2.171,6.755 -2.171,7.632C-2.171,8.714 -1.751,9.574 -0.91,10.21C-0.07,10.846 1.045,11.164 2.435,11.164C3.37,11.164 4.189,11.014 4.891,10.714C5.593,10.414 6.137,9.994 6.525,9.453C6.912,8.912 7.106,8.298 7.106,7.611C7.106,7.537 7.081,7.475 7.03,7.424C6.978,7.373 6.916,7.348 6.843,7.348L4.496,7.348C4.423,7.348 4.361,7.373 4.31,7.424C4.258,7.475 4.233,7.537 4.233,7.611C4.233,7.932 4.069,8.203 3.74,8.422C3.411,8.641 2.975,8.751 2.435,8.751C1.952,8.751 1.557,8.663 1.25,8.488C0.943,8.312 0.79,8.071 0.79,7.764C0.79,7.471 0.939,7.252 1.239,7.106C1.539,6.96 2.04,6.806 2.742,6.646C2.902,6.602 3.085,6.554 3.29,6.503C3.495,6.452 3.714,6.39 3.948,6.317C4.986,6.009 5.805,5.615 6.404,5.132C7.004,4.65 7.304,3.948 7.304,3.027C7.304,1.944 6.876,1.1 6.021,0.494C5.165,-0.113 4.014,-0.417 2.566,-0.417C1.586,-0.417 0.731,-0.277 0,0" style="fill:rgb(227,38,91);fill-rule:nonzero;"/>
    </g>
    <g id="g96" transform="matrix(1.33333,0,0,-1.33333,107.834,34.1708)">
        <path id="path98" d="M0,0C-0.052,-0.051 -0.114,-0.077 -0.187,-0.077L-2.292,-0.077C-2.365,-0.077 -2.402,-0.113 -2.402,-0.186L-2.402,-4.836C-2.402,-5.319 -2.303,-5.677 -2.106,-5.911C-1.908,-6.145 -1.59,-6.262 -1.152,-6.262L-0.428,-6.262C-0.355,-6.262 -0.293,-6.287 -0.241,-6.338C-0.19,-6.39 -0.165,-6.452 -0.165,-6.525L-0.165,-8.608C-0.165,-8.77 -0.252,-8.865 -0.428,-8.894C-1.042,-8.923 -1.481,-8.937 -1.744,-8.937C-2.958,-8.937 -3.864,-8.737 -4.463,-8.334C-5.063,-7.932 -5.37,-7.176 -5.385,-6.064L-5.385,-0.186C-5.385,-0.113 -5.421,-0.077 -5.494,-0.077L-6.745,-0.077C-6.818,-0.077 -6.88,-0.051 -6.931,0C-6.982,0.051 -7.008,0.113 -7.008,0.186L-7.008,2.138C-7.008,2.211 -6.982,2.273 -6.931,2.325C-6.88,2.376 -6.818,2.402 -6.745,2.402L-5.494,2.402C-5.421,2.402 -5.385,2.438 -5.385,2.511L-5.385,5.121C-5.385,5.194 -5.359,5.256 -5.308,5.308C-5.257,5.359 -5.195,5.385 -5.121,5.385L-2.665,5.385C-2.592,5.385 -2.53,5.359 -2.479,5.308C-2.427,5.256 -2.402,5.194 -2.402,5.121L-2.402,2.511C-2.402,2.438 -2.365,2.402 -2.292,2.402L-0.187,2.402C-0.114,2.402 -0.052,2.376 0,2.325C0.051,2.273 0.077,2.211 0.077,2.138L0.077,0.186C0.077,0.113 0.051,0.051 0,0" style="fill:rgb(227,38,91);fill-rule:nonzero;"/>
    </g>
    <g id="g100" transform="matrix(1.33333,0,0,-1.33333,114.282,35.9985)">
        <path id="path102" d="M0,0C-0.059,-0.19 -0.11,-0.424 -0.154,-0.702C-0.154,-0.775 -0.117,-0.812 -0.044,-0.812L3.75,-0.812C3.838,-0.812 3.867,-0.775 3.838,-0.702C3.765,-0.278 3.729,-0.073 3.729,-0.088C3.597,0.351 3.367,0.691 3.038,0.932C2.709,1.173 2.303,1.294 1.82,1.294C0.899,1.294 0.292,0.863 0,0M7.018,-2.566C7.004,-2.742 6.909,-2.829 6.733,-2.829L-0.044,-2.829C-0.132,-2.829 -0.161,-2.866 -0.132,-2.939C-0.088,-3.232 -0.008,-3.524 0.11,-3.816C0.49,-4.635 1.265,-5.044 2.434,-5.044C3.37,-5.03 4.109,-4.65 4.65,-3.904C4.708,-3.816 4.774,-3.772 4.847,-3.772C4.891,-3.772 4.942,-3.802 5.001,-3.86L6.58,-5.417C6.653,-5.491 6.689,-5.557 6.689,-5.615C6.689,-5.644 6.66,-5.703 6.602,-5.79C6.119,-6.39 5.498,-6.854 4.738,-7.183C3.977,-7.512 3.144,-7.676 2.237,-7.676C0.979,-7.676 -0.084,-7.391 -0.954,-6.821C-1.824,-6.251 -2.449,-5.454 -2.829,-4.43C-3.136,-3.699 -3.29,-2.742 -3.29,-1.557C-3.29,-0.753 -3.18,-0.044 -2.961,0.57C-2.625,1.608 -2.036,2.435 -1.195,3.049C-0.355,3.663 0.643,3.97 1.799,3.97C3.26,3.97 4.434,3.546 5.319,2.698C6.203,1.85 6.741,0.716 6.931,-0.702C7.018,-1.258 7.047,-1.879 7.018,-2.566" style="fill:rgb(227,38,91);fill-rule:nonzero;"/>
    </g>
</svg>
